<?xml version="1.0" encoding="UTF-8" standalone="no"?>
<!DOCTYPE svg PUBLIC "-//W3C//DTD SVG 1.1//EN" "http://www.w3.org/Graphics/SVG/1.1/DTD/svg11.dtd">
<svg version="1.1" id="Layer_1" xmlns="http://www.w3.org/2000/svg" xmlns:xlink="http://www.w3.org/1999/xlink" x="0px" y="0px"
	 width="314.665px" height="326.234px" viewBox="0 0 314.665 326.234" enable-background="new 0 0 314.665 326.234"
	 xml:space="preserve">
<path fill="#515151" class="bjm-svg-logo" d="M182.598,239.265c0.523-1.592,26.383-115.977,26.383-115.977l15.25,130.574l12.184-4.573l-12.023,10.598
	l6.325,0.365l-16.251,20.712c0,0-7.695,25.848-7.794,32.524c-2.855,3.35-15.74,12.746-15.74,12.746s-15.287-3.496-19.537-5.642
	c-2.676-6.117-19.776-26.971-19.776-26.971l-23.004-12.808l5.691-2.783l-15.188-5.118l13.004-0.5L95.635,146.117
	c0,0,68.22,95.436,69.318,96.702C168.819,241.017,177.716,238.53,182.598,239.265 M190.706,63.63c0,0-10.439-15.658-14.365-21.946
	l1.665-0.591c0,0-0.39-1.881-10.358-14.566c-2.315-3.797-4.029-6.668-4.591-7.747c0.257-0.796,0.484-1.072,1.861-0.467
	C150.647,4.866,143.02-2.612,125.891,0.837c-0.159,0.033-0.315,0.076-0.474,0.112c-0.161,0.029-0.32,0.049-0.481,0.081
	c-17.129,3.45-24.585,20.858-27.94,30.367c1.035-1.09,2.616-1.397,3.162-0.764c-0.101,1.212-3.112,5.849-3.776,10.244
	c-4.284,15.557-6.347,26.86-6.347,26.86l2.108,0.341c-1.188,7.317-2.659,15.94-2.659,15.94s3.817-2.248,6.896,2.163
	c1.85,2.65,0.935,14.773,0.935,14.773s4.264-4.097,6.36-3.072c1.854,0.907,0.712,11.168,0.712,11.168
	c1.968-2.979,3.699-5.675,5.621-6.063c2.834,14.066,49.027,64.88,49.027,64.88s22.923-64.734,20.089-78.8
	c1.923-0.387,4.562,1.429,7.529,3.414c0,0-5.023-9.019-3.666-10.573c1.535-1.757,7.054,0.37,7.054,0.37s-5.535-10.823-4.857-13.983
	C186.316,63.036,190.706,63.63,190.706,63.63 M44.901,241.231l-11.308,0.408l4.355,40.466l14.485,4.081l46.468-12.603l-46.194,2.215
	l-0.074-92.402l-2.339,9.485l-3.625,2.26L44.901,241.231z M272.958,149.565l-4.219-0.68l-5.827-7.84l35.702,85.258l-43.376,15.919
	l47.65-6.48l11.775-9.369l-11.649-38.996l-10.584,4L272.958,149.565z M24.559,88.745C8.48,90.793,2.251,100.772,0,107.989
	c1.055-0.638,1.155-0.552,1.78-0.019c-1.098,7.005,3.067,21.511,9.083,28.842c-0.461-2.287,0.011-3.317,0.238-4.299
	c8.478,15.05,15.687,24.278,23.282,29.697c-0.345-0.76-0.455-1.311,0.144-1.818c5.529,3.735,10.696,6.694,17.575,16.993
	c0.306-10.076-0.467-29.655-11.098-38.227c3.891,1.808,4.906,2.412,8.768,6.394c-2.493-12.377-15.01-17.405-18.786-26.16
	c7.351,5.681,9.904,8.227,20.857,11.121c0.933-9.199-1.689-17.786-3.581-23.099c0.566,0.377-0.766-1.442,2.572,1.201
	c-0.654-12.109-3.161-16.534-3.161-16.534L80.51,75.317L22.906,86.868C23.479,88.027,24.068,87.994,24.559,88.745 M253.12,40.501
	L195.534,52.15l36.768,2.745c0,0-0.598,5.051,3.487,16.469c2.054-3.729,1.528-1.536,1.904-2.103
	c0.313,5.631,1.22,14.562,5.642,22.685c8.978-6.909,10.347-10.245,14.925-18.329c-0.092,9.534-9.688,19.016-7.194,31.393
	c2.021-5.167,2.722-6.116,5.61-9.29c-6.485,12.019,0.382,30.371,4.563,39.543c2.357-12.158,5.977-16.887,9.627-22.472
	c0.749,0.236,0.86,0.788,0.838,1.621c4.903-7.937,7.979-19.237,9.971-36.394c0.588,0.817,1.423,1.584,1.882,3.871
	c2.71-9.088,0.935-24.075-2.789-30.11c0.37-0.733,0.428-0.85,1.648-0.671c-4.869-5.782-14.476-12.571-30.095-8.236
	C252.484,41.989,253.04,41.793,253.12,40.501"/>
</svg>
